<svg id="Layer_1" data-name="Layer 1" xmlns="http://www.w3.org/2000/svg" viewBox="0 0 23.5 22.91"><title>Untitled-1</title><path d="M.3.47H3.5A3.14,3.14,0,0,1,6,1.35a2.9,2.9,0,0,1,.8,2,2.79,2.79,0,0,1-.85,2.18,3.3,3.3,0,0,1-2.36.79H3.08v5h.73v.28H.29v-.28h.78V.77H.3Zm2.78.3V6h.49a1,1,0,0,0,.72-.31,2.67,2.67,0,0,0,.29-1.57V2.77A4.68,4.68,0,0,0,4.44,1.4.78.78,0,0,0,4.06.86,2.54,2.54,0,0,0,3.27.77Z" transform="translate(-0.29 -0.47)"/><path d="M9,.47h6.08V3.4h-.28C14.65,1.64,14.07.77,13.06.77V11.26h.77v.28H10.3l0-.3H11V.77a1.45,1.45,0,0,0-1.23.82,4.46,4.46,0,0,0-.52,1.83H9Z" transform="translate(-0.29 -0.47)"/><path d="M17.21.47h3.34v.3H20s-.06,0-.06,0l.89,2.92,1-2.36a.67.67,0,0,0,.06-.3c0-.21-.1-.31-.3-.31h-.29V.47h1.82v.3a1.08,1.08,0,0,0-.67.15,1.41,1.41,0,0,0-.36.56L21,4.18l2.15,7.06h.66v.3H20.48v-.3h.58L19.79,7.1l-1.34,3.28a1.06,1.06,0,0,0-.09.45c0,.27.12.41.36.41H19v.3H17.21v-.3a.78.78,0,0,0,.48-.13,1.3,1.3,0,0,0,.34-.53l1.62-3.94L17.85.77h-.64Z" transform="translate(-0.29 -0.47)"/><path d="M.38,12.77H2.91a1.72,1.72,0,0,1,1.7,1.33,12.73,12.73,0,0,1,.47,4,15,15,0,0,1-.24,3.1,3,3,0,0,1-.74,1.54,1.85,1.85,0,0,1-1.34.48H.38V23H1V13H.38Zm3.35,8.72V14a1.13,1.13,0,0,0-.24-.75A.77.77,0,0,0,2.87,13H2.28V23h.43a.88.88,0,0,0,.77-.38A2.21,2.21,0,0,0,3.73,21.49Z" transform="translate(-0.29 -0.47)"/><path d="M10,13H9.31V23h.63v.25H7.41V23h.65V13H7.41v-.25H10Z" transform="translate(-0.29 -0.47)"/><path d="M15.9,15.64a5.14,5.14,0,0,0-.61-2.05,1.22,1.22,0,0,0-1-.7.75.75,0,0,0-.65.38,1.66,1.66,0,0,0-.27,1,3,3,0,0,0,.27,1.28,7.77,7.77,0,0,0,1,1.51,10.69,10.69,0,0,1,1.5,2.17A4,4,0,0,1,16.59,21,2.53,2.53,0,0,1,16,22.71a2,2,0,0,1-1.61.67,1.65,1.65,0,0,1-1.11-.49c-.14-.13-.24-.2-.3-.2-.26,0-.4.19-.43.58h-.22V20h.22a5.45,5.45,0,0,0,.69,2.33,1.48,1.48,0,0,0,1.17.81.9.9,0,0,0,.79-.38,1.76,1.76,0,0,0,.28-1.08,3.37,3.37,0,0,0-.37-1.52,9.09,9.09,0,0,0-1.27-1.81,8.35,8.35,0,0,1-1.17-1.68,3.15,3.15,0,0,1-.37-1.45,3,3,0,0,1,.55-1.91,1.74,1.74,0,0,1,1.4-.67,1.8,1.8,0,0,1,1,.37.81.81,0,0,0,.36.18c.18,0,.27-.13.27-.37v-.05h.23v2.87Z" transform="translate(-0.29 -0.47)"/><path d="M23.64,15.55h-.23a4.62,4.62,0,0,0-.49-1.94A1.23,1.23,0,0,0,21.79,13V23h.65v.25H19.9V23h.64V13a1.24,1.24,0,0,0-1.13.59,4.49,4.49,0,0,0-.48,1.94H18.7V12.77h4.94Z" transform="translate(-0.29 -0.47)"/></svg>